<svg width="280" height="164" viewBox="0 0 280 164" fill="none" xmlns="http://www.w3.org/2000/svg">
<path d="M0 81.0239C0.637236 76.6706 1.11517 73.0428 1.75241 69.4956C4.77928 52.4852 7.88581 35.5555 10.9127 18.5451C11.7092 14.1111 12.4261 9.59653 12.9837 5.16254C13.382 2.2603 14.4971 0.728561 17.6833 0.809179C30.3484 0.889797 43.0135 0.72856 55.6785 0.889796C62.5288 0.970414 69.1401 2.58277 74.7159 7.17799C83.9559 14.7561 84.1949 29.751 75.1939 39.5864C70.6536 44.5847 65.0778 47.8094 58.7054 49.8248C56.3158 50.5504 55.7582 51.679 57.3513 53.6139C63.7236 60.9501 70.0163 68.2863 76.4683 75.6225C76.7073 75.8644 77.9818 77.1543 77.9818 76.3481C79.1766 69.8987 87.4607 22.9791 90.3283 5.80748C91.2045 0.728559 96.2227 0.809179 96.2227 0.809179L109.684 0.889796C109.684 0.889796 113.826 1.53474 113.189 5.00131C108.967 28.7836 104.985 52.5658 100.922 76.3481C100.365 79.8147 99.0902 81.427 95.1075 81.3464C82.6814 81.0239 70.335 81.1852 57.9089 81.2658C55.0413 81.2658 53.0499 80.4596 51.2178 78.2023C44.6862 70.1405 37.9952 62.1594 31.3042 54.1782C30.428 53.1302 29.5518 52.2434 27.7994 50.3085C26.525 57.4029 25.1708 63.5299 24.2946 69.6568C22.7015 81.1046 22.7812 81.1046 11.5499 81.1046H0V81.0239ZM36.5614 17.6583C35.2073 17.7389 33.6142 18.3839 33.1363 20.3993C32.1804 24.9139 31.5432 29.5091 30.8263 34.1044C30.428 36.5229 31.7025 37.3291 33.8532 37.2485C36.9597 37.1678 51.2975 34.9911 54.8023 32.8951C57.5902 31.2827 59.1037 27.8968 58.1478 24.269C57.192 20.7218 54.4837 18.8676 51.0585 18.3033C48.1113 17.8196 38.7918 17.4971 36.5614 17.6583Z" fill="#593089"/>
<path d="M137.005 42.4708C135.97 47.9528 131.987 70.9289 130.633 77.7008C130.394 78.7488 128.88 80.2806 127.925 80.3612C122.11 80.603 116.215 80.4418 110.321 80.5224C107.931 80.5224 107.613 79.1519 108.011 77.2977C109.843 67.0592 111.596 56.8208 113.428 46.5017C115.339 35.5377 120.517 7.32142 121.154 3.69361C121.791 0.0658104 123.544 0.0658105 124.181 0.0658105C129.199 0.0658105 131.668 -0.740368 135.412 3.29052C145.13 13.8515 168.628 38.6011 170.381 40.6166C170.699 40.536 171.336 41.9065 172.053 39.1655C172.292 38.1981 176.753 13.9321 178.346 3.69361C178.904 -0.0148073 182.488 0.146433 182.488 0.146433L196.826 0.0658105C196.826 0.0658105 201.844 -0.0148073 201.048 4.90288C199.932 11.9166 188.542 75.3629 188.064 78.1845C187.188 82.7797 179.78 82.7797 175.08 78.0233C163.849 66.6561 152.697 55.1278 141.625 43.6801C140.59 42.632 137.643 38.6011 137.005 42.4708Z" fill="#593089"/>
<path d="M244.699 0C222.316 0 201.606 18.3809 198.419 41.0345C195.233 63.6881 210.846 82.069 233.308 82.069C255.691 82.069 276.401 63.6881 279.587 41.0345C282.774 18.3809 267.161 0 244.699 0ZM235.857 63.6881C223.511 63.6881 214.908 53.5302 216.66 41.1151C218.413 28.6193 229.803 18.5421 242.15 18.5421C254.496 18.5421 263.099 28.7 261.346 41.1151C259.594 53.5302 248.204 63.6881 235.857 63.6881Z" fill="#593089"/>
<path d="M41.6562 151V105.5H53.6875C59 105.5 63.2292 107.188 66.375 110.562C69.5417 113.938 71.1562 118.562 71.2188 124.438V131.812C71.2188 137.792 69.6354 142.49 66.4688 145.906C63.3229 149.302 58.9792 151 53.4375 151H41.6562ZM50.8438 113.156V143.375H53.5938C56.6562 143.375 58.8125 142.573 60.0625 140.969C61.3125 139.344 61.9688 136.552 62.0312 132.594V124.688C62.0312 120.438 61.4375 117.479 60.25 115.812C59.0625 114.125 57.0417 113.24 54.1875 113.156H50.8438ZM93.625 134.375H89.0625V151H79.875V105.5H94.5312C99.1354 105.5 102.688 106.698 105.188 109.094C107.708 111.469 108.969 114.854 108.969 119.25C108.969 125.292 106.771 129.521 102.375 131.938L110.344 150.562V151H100.469L93.625 134.375ZM89.0625 126.719H94.2812C96.1146 126.719 97.4896 126.115 98.4062 124.906C99.3229 123.677 99.7812 122.042 99.7812 120C99.7812 115.438 98 113.156 94.4375 113.156H89.0625V126.719ZM126.875 151H117.688V105.5H126.875V151ZM151.406 138.5L159.062 105.5H169.312L156.188 151H146.625L133.594 105.5H143.781L151.406 138.5ZM199.094 131.312H184.781V143.375H201.719V151H175.594V105.5H201.656V113.156H184.781V123.906H199.094V131.312ZM222.812 134.375H218.25V151H209.062V105.5H223.719C228.323 105.5 231.875 106.698 234.375 109.094C236.896 111.469 238.156 114.854 238.156 119.25C238.156 125.292 235.958 129.521 231.562 131.938L239.531 150.562V151H229.656L222.812 134.375ZM218.25 126.719H223.469C225.302 126.719 226.677 126.115 227.594 124.906C228.51 123.677 228.969 122.042 228.969 120C228.969 115.438 227.188 113.156 223.625 113.156H218.25V126.719Z" fill="#593089"/>
</svg>
