<svg width="24" height="24" viewBox="0 0 24 24" fill="none" xmlns="http://www.w3.org/2000/svg">
<path d="M11 11V5C11 3.89543 11.8954 3 13 3H19C20.1046 3 21 3.89543 21 5V11C21 12.1046 20.1046 13 19 13H13" stroke="#009941" stroke-width="1.5" stroke-linecap="round" stroke-linejoin="round"/>
<path d="M16 19L18 17" stroke="#009941" stroke-width="1.5" stroke-linecap="round" stroke-linejoin="round"/>
<path d="M18 21L16 19" stroke="#009941" stroke-width="1.5" stroke-linecap="round" stroke-linejoin="round"/>
<path d="M16 19H19C20.1046 19 21 18.1046 21 17V16" stroke="#009941" stroke-width="1.5" stroke-linecap="round" stroke-linejoin="round"/>
<rect x="3" y="11" width="10" height="10" rx="2" stroke="#009941" stroke-width="1.5" stroke-linecap="round" stroke-linejoin="round"/>
<path d="M8 5L6 7" stroke="#009941" stroke-width="1.5" stroke-linecap="round" stroke-linejoin="round"/>
<path d="M6 3L8 5" stroke="#009941" stroke-width="1.5" stroke-linecap="round" stroke-linejoin="round"/>
<path d="M8 5H5C3.89543 5 3 5.89543 3 7V8" stroke="#009941" stroke-width="1.5" stroke-linecap="round" stroke-linejoin="round"/>
</svg>
