<svg width="24" height="24" viewBox="0 0 24 24" fill="none" xmlns="http://www.w3.org/2000/svg">
<path d="M7.99965 3L5.88965 6.777" stroke="#FF0000" stroke-width="1.5" stroke-linecap="round" stroke-linejoin="round"/>
<path d="M15 3L17.3 6.777" stroke="#FF0000" stroke-width="1.5" stroke-linecap="round" stroke-linejoin="round"/>
<path d="M16 21C13.239 21 11 18.761 11 16C11 13.239 13.239 11 16 11C18.762 11 21 13.239 21 16C21 18.761 18.762 21 16 21" stroke="#FF0000" stroke-width="1.5" stroke-linecap="round" stroke-linejoin="round"/>
<path d="M19.4415 12.3749L20.1445 9.12886C20.4065 7.91986 19.4875 6.77686 18.2485 6.77686H4.94047C3.70447 6.77686 2.78347 7.91986 3.04447 9.12886L4.51547 15.9209C4.70747 16.8139 5.49747 17.4499 6.41147 17.4499H11.2155" stroke="#FF0000" stroke-width="1.5" stroke-linecap="round" stroke-linejoin="round"/>
<path d="M17.2367 14.7632L14.7617 17.2382" stroke="#FF0000" stroke-width="1.5" stroke-linecap="round" stroke-linejoin="round"/>
<path d="M17.2367 17.2372L14.7617 14.7622" stroke="#FF0000" stroke-width="1.5" stroke-linecap="round" stroke-linejoin="round"/>
</svg>
