<svg width="24" height="24" viewBox="0 0 24 24" fill="none" xmlns="http://www.w3.org/2000/svg">
<path d="M8.00062 3L5.89062 6.777" stroke="#009941" stroke-width="1.5" stroke-linecap="round" stroke-linejoin="round"/>
<path d="M15 3L17.3 6.777" stroke="#009941" stroke-width="1.5" stroke-linecap="round" stroke-linejoin="round"/>
<path d="M16 21C13.239 21 11 18.761 11 16C11 13.239 13.239 11 16 11C18.762 11 21 13.239 21 16C21 18.761 18.762 21 16 21" stroke="#009941" stroke-width="1.5" stroke-linecap="round" stroke-linejoin="round"/>
<path d="M18.2223 14.8889L15.4443 17.6669L13.7783 15.9999" stroke="#009941" stroke-width="1.5" stroke-linecap="round" stroke-linejoin="round"/>
<path d="M19.4415 12.3751L20.1445 9.1291C20.4065 7.9201 19.4875 6.7771 18.2485 6.7771H4.94047C3.70447 6.7771 2.78347 7.9201 3.04447 9.1291L4.51547 15.9211C4.70747 16.8141 5.49747 17.4501 6.41147 17.4501H11.2155" stroke="#009941" stroke-width="1.5" stroke-linecap="round" stroke-linejoin="round"/>
</svg>
