<svg width="24" height="25" viewBox="0 0 24 25" fill="none" xmlns="http://www.w3.org/2000/svg">
<path d="M7.99965 3.24438L5.88965 7.10532" stroke="#FF0000" stroke-width="1.5" stroke-linecap="round" stroke-linejoin="round"/>
<path d="M15 3.24438L17.3 7.10532" stroke="#FF0000" stroke-width="1.5" stroke-linecap="round" stroke-linejoin="round"/>
<path d="M16 21.6443C13.239 21.6443 11 19.3556 11 16.5332C11 13.7109 13.239 11.4221 16 11.4221C18.762 11.4221 21 13.7109 21 16.5332C21 19.3556 18.762 21.6443 16 21.6443" stroke="#FF0000" stroke-width="1.5" stroke-linecap="round" stroke-linejoin="round"/>
<path d="M19.4415 12.8276L20.1445 9.50949C20.4065 8.27362 19.4875 7.10522 18.2485 7.10522H4.94047C3.70447 7.10522 2.78347 8.27362 3.04447 9.50949L4.51547 16.4524C4.70747 17.3653 5.49747 18.0154 6.41147 18.0154H11.2155" stroke="#FF0000" stroke-width="1.5" stroke-linecap="round" stroke-linejoin="round"/>
<path d="M17.2367 15.2688L14.7617 17.7988" stroke="#FF0000" stroke-width="1.5" stroke-linecap="round" stroke-linejoin="round"/>
<path d="M17.2367 17.7978L14.7617 15.2678" stroke="#FF0000" stroke-width="1.5" stroke-linecap="round" stroke-linejoin="round"/>
</svg>
