<svg width="14" height="14" viewBox="0 0 14 14" fill="none" xmlns="http://www.w3.org/2000/svg">
<path d="M2.76717 6.0925C3.80422 8.215 5.47501 9.955 7.5131 11.035L9.09747 9.385C9.29912 9.175 9.57999 9.115 9.83205 9.1975C10.6386 9.475 11.5028 9.625 12.4031 9.625C12.5941 9.625 12.7772 9.70402 12.9123 9.84467C13.0473 9.98532 13.1232 10.1761 13.1232 10.375V13C13.1232 13.1989 13.0473 13.3897 12.9123 13.5303C12.7772 13.671 12.5941 13.75 12.4031 13.75C9.15604 13.75 6.04201 12.4067 3.74602 10.0156C1.45003 7.62452 0.160156 4.38151 0.160156 1C0.160156 0.801088 0.236031 0.610322 0.371089 0.46967C0.506147 0.329018 0.689326 0.25 0.880327 0.25H3.40092C3.59192 0.25 3.7751 0.329018 3.91016 0.46967C4.04522 0.610322 4.12109 0.801088 4.12109 1C4.12109 1.9375 4.26513 2.8375 4.53159 3.6775C4.61081 3.94 4.5532 4.2325 4.35155 4.4425L2.76717 6.0925Z" fill="black"/>
</svg>
