<svg width="26" height="26" viewBox="0 0 26 26" fill="none" xmlns="http://www.w3.org/2000/svg">
<path fill-rule="evenodd" clip-rule="evenodd" d="M19.0024 22.0039H6.99742C6.46672 22.004 5.95771 21.7933 5.58245 21.418C5.20719 21.0428 4.99658 20.5337 4.99658 20.003V9.49867C4.99689 8.67003 5.66856 7.99835 6.49721 7.99805H19.5026C20.3313 7.99835 21.0029 8.67003 21.0032 9.49867V20.003C21.0032 20.5337 20.7926 21.0428 20.4174 21.418C20.0421 21.7933 19.5331 22.004 19.0024 22.0039Z" stroke="#333333" stroke-width="1.5" stroke-linecap="round" stroke-linejoin="round"/>
<path d="M14.5559 14.2244L12.6101 16.1702L11.4434 15.0022" stroke="#333333" stroke-width="1.5" stroke-linecap="round" stroke-linejoin="round"/>
<path d="M8.99854 7.998V7.7479V7.7479C8.99854 5.67599 10.6782 3.99639 12.7501 3.99634H13.2503C15.3222 3.99639 17.0019 5.67599 17.0019 7.7479V7.7479V7.998" stroke="#333333" stroke-width="1.5" stroke-linecap="round" stroke-linejoin="round"/>
</svg>
