<svg width="24" height="24" viewBox="0 0 24 24" fill="none" xmlns="http://www.w3.org/2000/svg">
<path d="M8.00014 3L5.89014 6.777" stroke="#333333" stroke-width="1.5" stroke-linecap="round" stroke-linejoin="round"/>
<path d="M15 3L17.3 6.777" stroke="#333333" stroke-width="1.5" stroke-linecap="round" stroke-linejoin="round"/>
<path d="M16 21C13.239 21 11 18.761 11 16C11 13.239 13.239 11 16 11C18.762 11 21 13.239 21 16C21 18.761 18.762 21 16 21" stroke="#333333" stroke-width="1.5" stroke-linecap="round" stroke-linejoin="round"/>
<path d="M19.441 12.3751L20.144 9.1291C20.406 7.9201 19.487 6.7771 18.248 6.7771H4.93998C3.70398 6.7771 2.78298 7.9201 3.04398 9.1291L4.51498 15.9211C4.70698 16.8141 5.49698 17.4501 6.41098 17.4501H11.215" stroke="#333333" stroke-width="1.5" stroke-linecap="round" stroke-linejoin="round"/>
<path d="M15.8809 14.314V16.267L17.4169 17.204" stroke="#333333" stroke-width="1.5" stroke-linecap="round" stroke-linejoin="round"/>
</svg>
