<svg width="24" height="24" viewBox="0 0 24 24" fill="none" xmlns="http://www.w3.org/2000/svg">
<path fill-rule="evenodd" clip-rule="evenodd" d="M19.6 6.467L17.9 4.2C17.333 3.445 16.444 3 15.5 3H8.5C7.556 3 6.667 3.445 6.1 4.2L4.4 6.467C4.14 6.813 4 7.234 4 7.667V18C4 19.657 5.343 21 7 21H17C18.657 21 20 19.657 20 18V7.667C20 7.234 19.86 6.813 19.6 6.467Z" stroke="#333333" stroke-width="1.5" stroke-linecap="round" stroke-linejoin="round"/>
<path d="M15 10C15 11.657 13.657 13 12 13C10.343 13 9 11.657 9 10" stroke="#333333" stroke-width="1.5" stroke-linecap="round" stroke-linejoin="round"/>
<path d="M19.8801 7H4.12012" stroke="#333333" stroke-width="1.5" stroke-linecap="round" stroke-linejoin="round"/>
</svg>
