<svg width="20" height="20" viewBox="0 0 20 20" fill="none" xmlns="http://www.w3.org/2000/svg">
<path d="M9.99994 4.99173L16.2749 15.8334H3.72494L9.99994 4.99173ZM2.28327 15.0001C1.6416 16.1084 2.4416 17.5001 3.72494 17.5001H16.2749C17.5583 17.5001 18.3583 16.1084 17.7166 15.0001L11.4416 4.1584C10.7999 3.05007 9.19994 3.05007 8.55827 4.1584L2.28327 15.0001ZM9.1666 9.16673V10.8334C9.1666 11.2917 9.5416 11.6667 9.99994 11.6667C10.4583 11.6667 10.8333 11.2917 10.8333 10.8334V9.16673C10.8333 8.7084 10.4583 8.3334 9.99994 8.3334C9.5416 8.3334 9.1666 8.7084 9.1666 9.16673ZM9.1666 13.3334H10.8333V15.0001H9.1666V13.3334Z" fill="#E73A3A"/>
</svg>
